<svg xmlns="http://www.w3.org/2000/svg" width="32" height="32" viewBox="0 0 32 32">
  <g id="Grupo_88854" data-name="Grupo 88854" transform="translate(-6204 253)">
    <rect id="Rectángulo_14317" data-name="Rectángulo 14317" width="32" height="32" transform="translate(6204 -253)"/>
    <g id="Grupo_88853" data-name="Grupo 88853" transform="translate(-190.554 -135)">
      <path id="Trazado_14473" data-name="Trazado 14473" d="M215.1,169.055l12.03,14.331a2.533,2.533,0,0,0,1.542.867v-8.33l-12.025-13.748a2.526,2.526,0,0,0-1.546-.834Z" transform="translate(6189.047 -274.341)" fill="#6afe99"/>
      <path id="Trazado_14477" data-name="Trazado 14477" d="M208.239,176.239V161.307a2.534,2.534,0,0,0-1.883.469l-2.649,1.975a2.537,2.537,0,0,0-1.023,2.031l-.026,10.457h-.016v5.224a2.7,2.7,0,0,0,.813,2.025,2.79,2.79,0,0,0,4.784-2.025Z" transform="translate(6195.911 -274.28)" fill="#fff"/>
      <path id="Trazado_14478" data-name="Trazado 14478" d="M245.32,169.269V184.2a2.524,2.524,0,0,0,1.883-.469l2.649-1.974a2.54,2.54,0,0,0,1.023-2.032l.026-10.458h.016v-5.222a2.7,2.7,0,0,0-.813-2.026,2.79,2.79,0,0,0-4.784,2.026Z" transform="translate(6172.402 -274.249)" fill="#fff"/>
    </g>
  </g>
</svg>
